<svg width="32" height="35" viewBox="0 0 32 35" fill="none" xmlns="http://www.w3.org/2000/svg">
<path d="M16.6667 22.0867V35H4.30761e-07C-0.000516857 32.9648 0.464869 30.9565 1.3605 29.129C2.25613 27.3015 3.55823 25.7032 5.16703 24.4567C6.77583 23.2102 8.64863 22.3486 10.6419 21.9377C12.6352 21.5269 14.6961 21.5779 16.6667 22.0867ZM13.3333 20C7.80833 20 3.33333 15.525 3.33333 10C3.33333 4.475 7.80833 0 13.3333 0C18.8583 0 23.3333 4.475 23.3333 10C23.3333 15.525 18.8583 20 13.3333 20ZM23.3333 26.6667V21.6667H26.6667V26.6667H31.6667V30H26.6667V35H23.3333V30H18.3333V26.6667H23.3333Z" fill="#25B16F"/>
</svg>
