<svg version="1.0" xmlns="http://www.w3.org/2000/svg"
 width="136.000000pt" height="136.000000pt" viewBox="0 0 136.000000 136.000000"
 preserveAspectRatio="xMidYMid meet">

<g transform="translate(0.000000,136.000000) scale(0.100000,-0.100000)"
fill="currentColor" stroke="none">
<path d="M1029 1151 c-16 -17 -29 -40 -29 -54 0 -18 -18 -40 -70 -83 -96 -80
-137 -87 -232 -42 -38 17 -68 38 -68 46 0 23 -57 72 -83 72 -33 0 -84 -43 -92
-78 -8 -37 -116 -107 -167 -108 -48 -1 -83 -19 -97 -51 -17 -37 -13 -59 15
-92 21 -25 33 -31 65 -31 45 0 89 34 89 69 0 14 21 34 63 63 49 33 75 44 121
49 54 7 66 4 118 -22 36 -18 62 -39 68 -53 11 -29 57 -66 82 -66 42 0 78 29
90 73 15 58 132 157 185 157 40 0 93 45 93 80 0 52 -49 100 -101 100 -11 0
-34 -13 -50 -29z"/>
<path d="M1022 804 c-22 -15 -22 -16 -22 -320 l0 -304 90 0 90 0 0 304 c0 304
0 305 -22 320 -12 9 -43 16 -68 16 -25 0 -56 -7 -68 -16z"/>
<path d="M460 700 c-7 -12 -9 -108 -8 -267 l3 -248 88 0 88 0 -1 254 c0 168
-4 259 -12 268 -7 8 -35 13 -79 13 -58 0 -70 -3 -79 -20z"/>
<path d="M742 617 c-7 -8 -12 -88 -12 -223 l-2 -209 89 0 88 0 3 203 c1 128
-1 210 -8 222 -9 17 -21 20 -79 20 -44 0 -72 -5 -79 -13z"/>
<path d="M190 521 c-6 -11 -10 -89 -10 -180 l0 -161 90 0 90 0 0 168 c0 117
-4 172 -12 180 -7 7 -40 12 -80 12 -56 0 -69 -3 -78 -19z"/>
</g>
</svg>