<svg version="1.0" xmlns="http://www.w3.org/2000/svg"
 width="136.000000pt" height="136.000000pt" viewBox="0 0 136.000000 136.000000"
 preserveAspectRatio="xMidYMid meet">

<g transform="translate(0.000000,136.000000) scale(0.100000,-0.100000)"
fill="currentColor" stroke="none">
<path d="M296 1167 c-10 -7 -21 -28 -25 -47 -6 -29 -12 -35 -41 -41 -51 -11
-82 -53 -118 -160 -45 -135 -62 -250 -62 -408 0 -128 2 -141 26 -190 30 -60
81 -102 154 -126 76 -25 94 -12 155 114 28 56 61 112 74 122 21 17 42 19 221
19 179 0 200 -2 221 -19 13 -10 46 -66 74 -122 61 -126 79 -139 155 -114 75
25 124 66 155 129 l28 56 -6 173 c-5 184 -22 275 -73 406 -31 78 -59 111 -105
120 -28 6 -34 12 -40 41 -10 47 -32 60 -106 60 -56 0 -67 -3 -90 -26 l-27 -27
-186 0 -186 0 -27 27 c-23 23 -34 26 -90 26 -36 0 -71 -6 -81 -13z m111 -183
c10 -27 -10 -69 -35 -72 -33 -5 -52 15 -52 54 0 33 1 34 40 34 28 0 43 -5 47
-16z m614 6 c21 -12 25 -50 7 -68 -39 -39 -100 17 -63 58 21 23 29 24 56 10z
m-737 -86 c26 -10 38 -41 26 -64 -8 -14 -21 -20 -45 -20 -35 0 -35 0 -35 45 0
47 12 55 54 39z m214 -41 c3 -43 3 -43 -30 -43 -55 0 -75 35 -41 72 10 11 27
18 42 16 23 -3 26 -8 29 -45z m434 30 c32 -29 16 -73 -27 -73 -46 0 -60 48
-23 74 28 20 27 20 50 -1z m179 7 c38 -21 18 -80 -28 -80 -53 0 -49 76 5 89 2
1 12 -4 23 -9z m-706 -140 c0 -32 -1 -33 -40 -33 -37 0 -40 2 -43 30 -2 23 3
35 19 47 33 23 64 1 64 -44z m633 16 c10 -47 -60 -64 -80 -20 -11 23 -10 29
11 45 21 17 26 18 45 6 12 -8 22 -22 24 -31z m-423 -89 c31 -45 15 -106 -35
-132 -39 -20 -73 -11 -106 28 -30 36 -27 76 7 113 36 39 104 34 134 -9z m264
9 c34 -37 37 -77 7 -113 -33 -39 -67 -48 -106 -28 -69 36 -68 130 2 159 38 16
71 10 97 -18z"/>
</g>
</svg>