<svg 
 width="63.000000pt" height="65.000000pt" viewBox="0 0 63.000000 65.000000"
>

<g transform="translate(0.000000,65.000000) scale(0.100000,-0.100000)"
fill="currentColor" stroke="none">
<path d="M12 638 c-9 -9 -12 -89 -12 -309 0 -296 0 -298 22 -313 19 -14 65
-16 298 -16 205 0 281 3 293 12 16 12 17 40 15 323 l-3 310 -300 3 c-226 2
-304 -1 -313 -10z m336 -190 l3 -87 87 -3 c85 -3 87 -3 87 -28 0 -25 -2 -25
-87 -28 l-87 -3 -3 -87 c-3 -85 -3 -87 -28 -87 -25 0 -25 2 -28 87 l-3 87 -87
3 c-85 3 -87 3 -87 28 0 25 2 25 88 28 l87 3 0 83 c0 45 3 86 7 90 4 4 16 6
28 4 18 -3 20 -11 23 -90z"/>
</g>
</svg>