<svg width="22" height="23" viewBox="0 0 22 23" fill="none" xmlns="http://www.w3.org/2000/svg">
<path fill-rule="evenodd" clip-rule="evenodd" d="M12.6887 0.171271C12.272 0 11.7438 0 10.6875 0C9.63115 0 9.10297 0 8.68634 0.171271C8.13083 0.399632 7.68948 0.837649 7.45938 1.38896C7.35434 1.64063 7.31323 1.93331 7.29714 2.36024C7.2735 2.98764 6.9493 3.56838 6.40143 3.8823C5.85357 4.19621 5.18472 4.18448 4.62542 3.8911C4.24483 3.69146 3.96887 3.58045 3.69674 3.54489C3.1006 3.467 2.4977 3.62733 2.02067 3.9906C1.6629 4.26305 1.39882 4.71701 0.870641 5.62492C0.342465 6.53284 0.0783776 6.98679 0.0195154 7.43052C-0.0589674 8.02215 0.102579 8.62049 0.468615 9.09391C0.635687 9.31 0.870495 9.49165 1.23492 9.7189C1.77065 10.053 2.11536 10.6221 2.11533 11.25C2.11529 11.8779 1.7706 12.4469 1.23491 12.781C0.87043 13.0082 0.635593 13.1899 0.468504 13.406C0.102468 13.8794 -0.0590784 14.4778 0.0194045 15.0694C0.0782666 15.5131 0.342354 15.9671 0.87053 16.875C1.39871 17.7829 1.66279 18.2369 2.02056 18.5093C2.49759 18.8726 3.10049 19.0329 3.69663 18.955C3.96875 18.9195 4.24469 18.8085 4.62525 18.6089C5.18458 18.3155 5.85349 18.3037 6.40138 18.6177C6.94928 18.9316 7.2735 19.5124 7.29715 20.1398C7.31323 20.5667 7.35434 20.8594 7.45938 21.111C7.68948 21.6623 8.13083 22.1004 8.68634 22.3287C9.10297 22.5 9.63115 22.5 10.6875 22.5C11.7438 22.5 12.272 22.5 12.6887 22.3287C13.2442 22.1004 13.6855 21.6623 13.9156 21.111C14.0207 20.8594 14.0618 20.5667 14.0779 20.1397C14.1015 19.5123 14.4257 18.9316 14.9735 18.6177C15.5214 18.3037 16.1903 18.3154 16.7497 18.6088C17.1302 18.8084 17.4061 18.9194 17.6783 18.955C18.2744 19.0328 18.8773 18.8725 19.3543 18.5092C19.7121 18.2368 19.9762 17.7828 20.5044 16.8749C21.0325 15.967 21.2966 15.5131 21.3555 15.0693C21.434 14.4777 21.2724 13.8794 20.9064 13.4059C20.7393 13.1898 20.5045 13.0082 20.14 12.7809C19.6043 12.4469 19.2596 11.8778 19.2597 11.2499C19.2597 10.6221 19.6044 10.0531 20.14 9.71909C20.5045 9.49179 20.7394 9.31011 20.9065 9.09399C21.2725 8.62057 21.4341 8.02223 21.3556 7.43059C21.2967 6.98687 21.0326 6.53291 20.5045 5.625C19.9763 4.71709 19.7122 4.26313 19.3544 3.99068C18.8774 3.62741 18.2745 3.46708 17.6784 3.54497C17.4062 3.58052 17.1303 3.69153 16.7498 3.89115C16.1904 4.18454 15.5215 4.19627 14.9736 3.88233C14.4257 3.56839 14.1015 2.98762 14.0779 2.36018C14.0618 1.93329 14.0207 1.64062 13.9156 1.38896C13.6855 0.837649 13.2442 0.399632 12.6887 0.171271ZM10.6875 14.625C12.5657 14.625 14.0882 13.114 14.0882 11.25C14.0882 9.38604 12.5657 7.875 10.6875 7.875C8.80935 7.875 7.2868 9.38604 7.2868 11.25C7.2868 13.114 8.80935 14.625 10.6875 14.625Z" fill="currentColor"/>
</svg>
