<svg width="27" height="27" viewBox="0 0 27 27" fill="none" xmlns="http://www.w3.org/2000/svg">
<path d="M18 6.75C18 9.23528 15.9853 11.25 13.5 11.25C11.0147 11.25 9 9.23528 9 6.75C9 4.26472 11.0147 2.25 13.5 2.25C15.9853 2.25 18 4.26472 18 6.75Z" fill="currentColor"/>
<path d="M17.638 15.1906C17.1058 15.1971 16.6097 15.2165 16.1774 15.2746C15.4542 15.3718 14.6625 15.6043 14.0084 16.2584C13.3543 16.9125 13.1219 17.7041 13.0246 18.4274C12.9373 19.0773 12.9374 19.8714 12.9375 20.7158V20.9092C12.9374 21.7536 12.9373 22.5477 13.0246 23.1976C13.0929 23.7051 13.2277 24.2463 13.528 24.75C13.5187 24.75 13.5093 24.75 13.5 24.75C4.5 24.75 4.5 22.4834 4.5 19.6875C4.5 16.8916 8.52944 14.625 13.5 14.625C14.992 14.625 16.3991 14.8292 17.638 15.1906Z" fill="currentColor"/>
<path fill-rule="evenodd" clip-rule="evenodd" d="M15.2016 24.1734C15.7783 24.75 16.7063 24.75 18.5625 24.75C20.4187 24.75 21.3467 24.75 21.9234 24.1734C22.5 23.5967 22.5 22.6687 22.5 20.8125C22.5 18.9563 22.5 18.0283 21.9234 17.4516C21.3467 16.875 20.4187 16.875 18.5625 16.875C16.7063 16.875 15.7783 16.875 15.2016 17.4516C14.625 18.0283 14.625 18.9563 14.625 20.8125C14.625 22.6687 14.625 23.5967 15.2016 24.1734ZM17.4674 22.4735C16.6776 21.908 15.75 21.2437 15.75 20.0923C15.75 18.8211 17.2969 17.9196 18.5625 19.1417C19.8281 17.9196 21.375 18.8211 21.375 20.0923C21.375 21.2437 20.4474 21.908 19.6576 22.4735C19.5755 22.5323 19.4949 22.59 19.417 22.6471C19.125 22.8611 18.8437 23.0625 18.5625 23.0625C18.2812 23.0625 18 22.8611 17.708 22.6471C17.6301 22.59 17.5495 22.5323 17.4674 22.4735Z" fill="currentColor"/>
</svg>
