<svg version="1.0" xmlns="http://www.w3.org/2000/svg"
 width="136.000000pt" height="136.000000pt" viewBox="0 0 136.000000 136.000000"
 preserveAspectRatio="xMidYMid meet">

<g transform="translate(0.000000,136.000000) scale(0.100000,-0.100000)"
fill="currentColor" stroke="none">
<path d="M144 1170 c-54 -22 -54 -19 -54 -492 l0 -437 24 -28 24 -28 541 0
540 0 23 23 23 23 0 449 0 449 -23 23 -23 23 -527 2 c-290 1 -537 -2 -548 -7z
m171 -150 l0 -65 -67 -3 -68 -3 0 71 0 71 68 -3 67 -3 0 -65z m865 0 l0 -71
-67 3 -68 3 -3 54 c-5 79 -2 81 73 81 l65 0 0 -70z m-525 -171 c253 -141 266
-150 246 -187 -5 -9 -78 -56 -163 -104 -213 -120 -196 -113 -219 -92 -17 16
-19 33 -19 212 0 168 2 198 17 214 9 10 19 18 22 18 4 0 56 -27 116 -61z
m-337 -55 l-3 -66 -65 0 -65 0 -3 66 -3 66 71 0 71 0 -3 -66z m860 0 l-3 -66
-65 0 -65 0 -3 66 -3 66 71 0 71 0 -3 -66z m-860 -228 l3 -66 -71 0 -70 0 0
63 c0 35 2 66 4 68 2 2 33 3 68 3 l63 -2 3 -66z m860 0 l3 -66 -71 0 -70 0 0
63 c0 35 2 66 4 68 2 2 33 3 68 3 l63 -2 3 -66z m-863 -226 l0 -65 -67 -3 -68
-3 0 71 0 71 68 -3 67 -3 0 -65z m865 0 l0 -71 -67 3 -68 3 -3 54 c-5 79 -2
81 73 81 l65 0 0 -70z"/>
</g>
</svg>
