<svg width="232" height="216" viewBox="0 0 232 216" fill="none" xmlns="http://www.w3.org/2000/svg">
<path d="M102.541 109.219L95.3712 111.751L96.4623 115.57L101.957 114.011V136.495H106.438V109.219H102.541ZM121.638 137.002C128.496 137.002 132.353 131.274 132.353 122.857C132.353 114.44 128.496 108.712 121.638 108.712C114.779 108.712 110.922 114.44 110.922 122.857C110.922 131.274 114.779 137.002 121.638 137.002ZM121.638 132.637C117.624 132.637 115.403 129.13 115.403 122.857C115.403 116.583 117.624 113.076 121.638 113.076C125.69 113.076 127.872 116.583 127.872 122.857C127.872 129.13 125.69 132.637 121.638 132.637Z" fill="white"/>
<path d="M106.418 79.5421C105.828 80.4315 106.071 81.6309 106.96 82.2209L121.454 91.8359C122.344 92.426 123.543 92.1832 124.133 91.2938C124.723 90.4044 124.48 89.205 123.591 88.615L110.707 80.0683L119.254 67.1846C119.844 66.2951 119.601 65.0958 118.712 64.5058C117.822 63.9157 116.623 64.1585 116.033 65.0479L106.418 79.5421ZM131.055 83.4268L130.226 85.1728V85.1728L131.055 83.4268ZM147.798 99.4837L149.508 98.5829V98.5829L147.798 99.4837ZM119.977 153.022L119.732 151.105L119.977 153.022ZM97.2142 148.55L98.1667 146.868L98.1667 146.868L97.2142 148.55ZM81.6745 131.326L83.4449 130.551L81.6745 131.326ZM81.4421 108.665C81.6856 107.626 81.0405 106.586 80.0013 106.343C78.9621 106.099 77.9223 106.744 77.6788 107.783L79.5605 108.224L81.4421 108.665ZM108.028 80.6104L108.412 82.5046C115.78 81.0134 123.434 81.9495 130.226 85.1728L131.055 83.4268L131.883 81.6809C124.337 78.0994 115.833 77.0593 107.645 78.7162L108.028 80.6104ZM131.055 83.4268L130.226 85.1728C137.018 88.3961 142.583 93.7332 146.088 100.385L147.798 99.4837L149.508 98.5829C145.614 91.1924 139.43 85.2624 131.883 81.6809L131.055 83.4268ZM147.798 99.4837L146.088 100.385C149.593 107.036 150.848 114.644 149.666 122.068L151.575 122.372L153.483 122.676C154.796 114.426 153.402 105.973 149.508 98.5829L147.798 99.4837ZM151.575 122.372L149.666 122.068C148.484 129.493 144.929 136.335 139.532 141.57L140.878 142.957L142.224 144.344C148.22 138.528 152.17 130.926 153.483 122.676L151.575 122.372ZM140.878 142.957L139.532 141.57C134.136 146.804 127.189 150.15 119.732 151.105L119.977 153.022L120.223 154.939C128.508 153.878 136.228 150.16 142.224 144.344L140.878 142.957ZM119.977 153.022L119.732 151.105C112.274 152.06 104.708 150.574 98.1667 146.868L97.2142 148.55L96.2616 150.232C103.53 154.349 111.937 156 120.223 154.939L119.977 153.022ZM97.2142 148.55L98.1667 146.868C91.625 143.163 86.4599 137.438 83.4449 130.551L81.6745 131.326L79.9041 132.101C83.2541 139.753 88.9932 146.114 96.2616 150.232L97.2142 148.55ZM81.6745 131.326L83.4449 130.551C80.4298 123.664 79.7272 115.985 81.4421 108.665L79.5605 108.224L77.6788 107.783C75.7733 115.917 76.5541 124.449 79.9041 132.101L81.6745 131.326Z" fill="white"/>
</svg>
