<svg width="232" height="216" viewBox="0 0 232 216" fill="none" xmlns="http://www.w3.org/2000/svg">
<path d="M104.755 109.219L97.5851 111.751L98.6762 115.57L104.17 114.011V136.495H108.652V109.219H104.755ZM123.851 137.002C130.71 137.002 134.567 131.274 134.567 122.857C134.567 114.44 130.71 108.712 123.851 108.712C116.993 108.712 113.136 114.44 113.136 122.857C113.136 131.274 116.993 137.002 123.851 137.002ZM123.851 132.637C119.838 132.637 117.617 129.13 117.617 122.857C117.617 116.583 119.838 113.076 123.851 113.076C127.904 113.076 130.086 116.583 130.086 122.857C130.086 129.13 127.904 132.637 123.851 132.637Z" fill="white"/>
<path d="M125.494 79.5421C126.084 80.4315 125.842 81.6309 124.952 82.2209L110.458 91.8359C109.569 92.426 108.369 92.1832 107.779 91.2938C107.189 90.4044 107.432 89.205 108.321 88.615L121.205 80.0683L112.658 67.1846C112.068 66.2951 112.311 65.0958 113.2 64.5058C114.09 63.9157 115.289 64.1585 115.879 65.0479L125.494 79.5421ZM100.857 83.4268L101.686 85.1728V85.1728L100.857 83.4268ZM84.1143 99.4837L85.8241 100.385V100.385L84.1143 99.4837ZM80.3374 122.372L82.246 122.068L82.246 122.069L80.3374 122.372ZM91.0341 142.957L89.6885 144.344V144.344L91.0341 142.957ZM111.935 153.022L112.181 151.105V151.105L111.935 153.022ZM134.698 148.55L133.745 146.868V146.868L134.698 148.55ZM150.238 131.326L152.008 132.101L152.008 132.101L150.238 131.326ZM150.47 108.665C150.227 107.626 150.872 106.586 151.911 106.343C152.95 106.099 153.99 106.744 154.233 107.783L152.352 108.224L150.47 108.665ZM123.884 80.6104L123.5 82.5046C116.132 81.0134 108.478 81.9495 101.686 85.1728L100.857 83.4268L100.029 81.6809C107.576 78.0994 116.08 77.0593 124.267 78.7162L123.884 80.6104ZM100.857 83.4268L101.686 85.1728C94.8937 88.3962 89.3286 93.7332 85.8241 100.385L84.1143 99.4837L82.4045 98.5829C86.2985 91.1924 92.4819 85.2624 100.029 81.6809L100.857 83.4268ZM84.1143 99.4837L85.8241 100.385C82.3195 107.036 81.0642 114.644 82.246 122.068L80.3374 122.372L78.4288 122.676C77.1157 114.426 78.5106 105.973 82.4045 98.5829L84.1143 99.4837ZM80.3374 122.372L82.246 122.069C83.4278 129.493 86.9832 136.335 92.3797 141.57L91.0341 142.957L89.6885 144.344C83.6924 138.528 79.742 130.926 78.4288 122.676L80.3374 122.372ZM91.0341 142.957L92.3797 141.57C97.7762 146.804 104.723 150.15 112.181 151.105L111.935 153.022L111.689 154.939C103.404 153.878 95.6846 150.16 89.6885 144.344L91.0341 142.957ZM111.935 153.022L112.181 151.105C119.638 152.06 127.204 150.574 133.745 146.868L134.698 148.55L135.65 150.232C128.382 154.349 119.975 156 111.689 154.939L111.935 153.022ZM134.698 148.55L133.745 146.868C140.287 143.163 145.452 137.438 148.467 130.551L150.238 131.326L152.008 132.101C148.658 139.753 142.919 146.114 135.65 150.232L134.698 148.55ZM150.238 131.326L148.467 130.551C151.482 123.664 152.185 115.985 150.47 108.665L152.352 108.224L154.233 107.783C156.139 115.917 155.358 124.449 152.008 132.101L150.238 131.326Z" fill="white"/>
</svg>
